<svg t="1651051174620" class="icon" viewBox="0 0 1024 1024" version="1.1" xmlns="http://www.w3.org/2000/svg" p-id="26295" width="200" height="200"><path d="M512 0a512 512 0 1 0 512 512A512 512 0 0 0 512 0zM94.592 505.6h112.64c0-180.352 134.656-326.4 300.8-326.4a281.6 281.6 0 0 1 160.128 51.2l-54.912 59.648a205.824 205.824 0 0 0-105.216-28.544C384 260.864 282.496 371.2 282.496 505.6h112.768l-150.4 163.2z m714.24 0c0 180.352-134.656 326.4-300.8 326.4a281.6 281.6 0 0 1-160.128-51.2l55.04-59.648a205.824 205.824 0 0 0 105.216 28.544c124.288 0 225.408-109.696 225.408-244.736H620.8L771.2 342.4l150.4 163.2z" fill="#8a8a8a" p-id="26296"></path></svg>