<svg t="1651050908252" class="icon" viewBox="0 0 1041 1024" version="1.1" xmlns="http://www.w3.org/2000/svg" p-id="21152" width="500" height="500"><path d="M506.215991 55.273078c261.983529 0 474.329892 212.366932 474.329892 474.329892 0 261.971187-212.346363 474.325778-474.329892 474.325778-261.96296 0-474.329892-212.354591-474.329892-474.325778 0.008228-261.96296 212.371046-474.329892 474.329892-474.329892z" fill="#B8D9FF" p-id="21153"></path><path d="M511.584506 48.600487c-22.473714 0-44.52782 1.666091-66.166433 4.697965 230.611655 32.21109 408.138777 230.134454 408.138777 469.631927 0 239.501587-177.527121 437.424951-408.138777 469.619585 21.638612 3.02776 43.692718 4.71442 66.166433 4.71442 205.258278 0 380.070288-130.382921 446.125648-312.863063 18.248837-50.402333 28.196016-104.782716 28.196016-161.475056 0-261.954732-212.371046-474.325778-474.321664-474.325778z" fill="#6E6E96" opacity=".15" p-id="21154"></path><path d="M161.018424 525.76479c0-244.664412 172.121582-446.022803 393.131617-471.536618a479.49683 479.49683 0 0 0-51.142818-2.78916C241.036036 51.443126 28.673218 263.810058 28.673218 525.76479c0 261.967073 212.358704 474.325778 474.334005 474.325778 17.277979 0 34.333813-0.970858 51.142818-2.780932-221.010035-25.509702-393.131618-226.872207-393.131617-471.544846z" fill="#FFFFFF" opacity=".21" p-id="21155"></path><path d="M506.220105 1020.379852c-270.618404 0-490.78511-220.166706-490.78511-490.78511 0-270.618404 220.166706-490.780996 490.78511-490.780996s490.78511 220.166706 490.78511 490.780996c0 55.462313-9.177898 109.892061-27.29098 161.775364a16.451104 16.451104 0 0 1-20.959834 10.111731 16.451104 16.451104 0 0 1-10.111732-20.959834c16.887168-48.390683 25.452109-99.167372 25.452109-150.927261 0-252.472413-205.402261-457.87056-457.874673-457.87056S48.349545 277.126443 48.349545 529.594742c0 252.472413 205.402261 457.874674 457.874673 457.874674 50.965925 0 101.006243-8.309885 148.73049-24.695169a16.455218 16.455218 0 0 1 10.687664 31.125045c-51.175729 17.570059-104.811512 26.48056-159.422267 26.48056z" fill="#6E6E96" p-id="21156"></path><path d="M499.938325 64.22883s-100.747073 105.69598-100.747073 461.889747c-0.728143 138.968431 16.080862 379.465559 100.747073 464.127657 0 0-264.690412-59.736556-264.690412-464.119429 0-436.174355 264.690412-461.897974 264.690412-461.897975z" fill="#FFFFFF" opacity=".21" p-id="21157"></path><path d="M469.590789 709.610715l-0.440177-0.004114c-120.962309-3.184085-233.553025-22.481942-317.026234-54.331016-90.314465-34.457227-138.051053-79.598004-138.051053-130.539246 0-52.599105 53.249086-100.512586 149.931721-134.920448 91.359371-32.511397 212.490346-50.414675 341.083762-50.414675 128.589303 0 249.720277 17.907391 341.079649 50.414675 96.686748 34.407861 149.935834 82.325457 149.935834 134.920448a16.455218 16.455218 0 0 1-32.910436 0c0-37.07772-46.67934-74.953519-128.062736-103.914703-87.903776-31.28137-205.118408-48.509983-330.046424-48.509983-124.928016 0-242.142649 17.228613-330.046425 48.509983-81.383395 28.961184-128.058622 66.836982-128.058622 103.914703 0 67.729678 161.734226 145.093886 423.034863 151.968054a16.455218 16.455218 0 0 1-0.423722 32.906322z" fill="#6E6E96" p-id="21158"></path><path d="M500.415526 1020.252324c-118.831358 0-211.914414-216.122836-211.914413-492.027479 0-275.908757 93.083055-492.035707 211.914413-492.035706 92.350798 0 171.010855 129.444974 200.395761 329.783141a16.455218 16.455218 0 1 1-32.564877 4.776127c-26.04861-177.605284-95.061795-301.648832-167.830884-301.648832-86.447489 0-179.003977 184.487679-179.003977 459.12527 0 274.633478 92.556488 459.117043 179.003977 459.117043a16.455218 16.455218 0 0 1 0 32.910436z" fill="#6E6E96" p-id="21159"></path><path d="M719.656626 465.143766c0.296194 0 0.588274 0.024683 0.884468 0.032911 0.209804 0 0.41138-0.024683 0.600615-0.024683l-1.485083-0.008228z m213.531139 539.644767c109.250307 0 87.549988-88.02719 67.968278-119.71994l-238.946223-393.699323c-9.544027-15.434995-23.847725-25.863489-41.664612-26.200821-19.659872 0.320877-34.823355 15.636571-44.412634 31.170297l-236.477941 388.729847c-19.585823 31.688636-41.277915 119.71994 67.968279 119.71994h425.564853z" fill="#FFD500" p-id="21160"></path><path d="M724.004917 482.631549l-1.485083-0.008227c0.296194 0 0.588274 0.020569 0.884468 0.028796 0.201576 0 0.407267-0.020569 0.600615-0.020569z m280.006107 419.920713l-238.946224-393.699322c-9.544027-15.434995-23.843611-25.863489-41.664612-26.200822-19.659872 0.320877-34.827469 15.636571-44.416748 31.170297l-236.469713 388.729847c-11.740798 18.993436-24.201512 58.210334-8.803541 86.607927 2.64929-7.129223 5.746985-13.435686 8.803541-18.376365l236.469713-388.721619c9.589278-15.533726 24.756876-30.84942 44.416748-31.170297 17.821001 0.337332 32.120586 10.761713 41.664612 26.200821l238.946224 393.691095c3.048329 4.932452 6.150138 11.238914 8.799428 18.372251 15.39797-28.389365 2.94137-67.614492-8.799428-86.603813z m-280.61495-351.664468c-0.296194-0.008228-0.588274-0.03291-0.884468-0.03291l1.485084 0.008228c-0.185121 0-0.390811 0.024683-0.600616 0.024682z" fill="#FFE76E" p-id="21161"></path><path d="M1001.156043 885.068593l-238.946223-393.699323a67.207225 67.207225 0 0 0-7.499466-9.963634l219.265783 361.274315c17.98144 29.088712 37.900481 109.920857-62.410529 109.920857h-390.737383c-73.320338 0-82.38305-43.170265-74.941178-77.767361l-6.232414 10.235146c-19.585823 31.688636-41.277915 119.71994 67.968279 119.71994h425.560739c109.246194 0 87.554102-88.02719 67.972392-119.71994z" fill="#FF9900" opacity=".52" p-id="21162"></path><path d="M705.282993 787.353393l-6.656136-100.097092c-1.250597-19.507661-1.867667-33.506938-1.867667-42.014286 0-11.563905 3.011305-20.57725 9.046256-27.060606 6.034951-6.475128 13.97048-9.708579 23.823042-9.708579 11.921806 0 19.902586 4.146715 23.913546 12.440145 4.027415 8.289316 6.043179 20.231691 6.043179 35.827124 0 9.198467-0.485429 18.536803-1.456287 28.023237l-8.943411 103.017893c-0.974972 12.255024-3.056557 21.663295-6.244755 28.20013-3.196426 6.549177-8.457982 9.819651-15.809351 9.819652-7.491238 0-12.699315-3.16763-15.611889-9.507003-2.904346-6.343487-4.985931-15.986244-6.236527-28.940615z m23.090785 137.23652c-8.462096 0-15.850489-2.748021-22.165179-8.223495-6.298235-5.479588-9.457637-13.151833-9.457637-23.008509 0-8.610193 3.011305-15.932765 9.046256-21.988285 6.034951-6.034951 13.423344-9.046256 22.165179-9.046256 8.733607 0 16.196048 3.019533 22.358528 9.046256 6.170707 6.05552 9.264288 13.378092 9.264288 21.988285 0 9.708579-3.134719 17.356141-9.358906 22.90155-6.240641 5.561864-13.530303 8.330454-21.852529 8.330454z" fill="#666666" p-id="21163"></path><path d="M933.187765 1021.243751H507.622912c-45.136663 0-75.714573-13.7977-90.886284-41.006404-20.725347-37.172338-3.229337-84.164327 8.914615-103.815971l236.420347-388.631116c14.673941-23.77779 34.206285-37.476759 55.301874-38.945387 0.765168-0.102845 1.517994-0.143983 2.332528-0.156325h0.090503l1.431604 0.008228c0.588274 0.004114 1.164207 0.037024 1.736026 0.098731 21.515198 1.118955 40.36465 13.106581 53.236744 33.922432l239.020272 393.814509c12.07813 19.544685 29.570027 66.540789 8.840566 103.709013-15.163484 27.208703-45.741393 41.00229-90.873942 41.00229zM720.532866 481.631895c-14.151488 0.415494-25.110663 14.789127-30.401015 23.354068l-236.420348 388.639343c-10.424381 16.866599-19.807969 49.818173-8.227609 70.584659 8.922842 16.010927 29.829197 24.12335 62.139018 24.12335h425.560739c32.309821 0 53.216176-8.116536 62.139018-24.119236 11.576246-20.766485 2.192658-53.726287-8.165903-70.494155L748.136495 499.909528c-4.985931-8.067171-13.888204-17.878595-27.603629-18.277633z" fill="#6E6E96" p-id="21164"></path></svg>